<?xml version="1.0" ?><svg id="Layer_1" style="enable-background:new 0 0 64 64;" version="1.1" viewBox="0 0 64 64" xml:space="preserve" xmlns="http://www.w3.org/2000/svg" xmlns:xlink="http://www.w3.org/1999/xlink"><style type="text/css">
	.st0{fill:#FFFFFF;}
	.st1{fill:#101820;}
</style><g><g><circle class="st0" cx="32" cy="32" r="32"/></g><g><path class="st1" d="M21.732,17.5c-0.276,0-0.5-0.224-0.5-0.5c0-0.827-0.673-1.5-1.5-1.5c-0.534,0-1.032,0.287-1.3,0.75    c-0.139,0.239-0.446,0.321-0.683,0.182c-0.239-0.138-0.321-0.444-0.183-0.683c0.445-0.771,1.275-1.249,2.165-1.249    c1.379,0,2.5,1.122,2.5,2.5C22.232,17.276,22.009,17.5,21.732,17.5z"/></g><g><path class="st1" d="M21.732,17.5c-0.276,0-0.5-0.224-0.5-0.5c0-1.378,1.121-2.5,2.5-2.5c0.89,0,1.72,0.479,2.165,1.249    c0.139,0.239,0.057,0.545-0.183,0.683c-0.237,0.138-0.544,0.056-0.683-0.182c-0.268-0.463-0.766-0.75-1.3-0.75    c-0.827,0-1.5,0.673-1.5,1.5C22.232,17.276,22.009,17.5,21.732,17.5z"/></g><g><path class="st1" d="M22.732,17.5h-2c-0.276,0-0.5-0.224-0.5-0.5s0.224-0.5,0.5-0.5h2c0.276,0,0.5,0.224,0.5,0.5    S23.009,17.5,22.732,17.5z"/></g><g><path class="st1" d="M8,33.5c-0.276,0-0.5-0.224-0.5-0.5s0.224-0.5,0.5-0.5c13.005,0,22.996-2.596,29.696-7.716    c0.219-0.166,0.533-0.126,0.701,0.094c0.168,0.22,0.126,0.533-0.094,0.701C31.425,30.835,21.229,33.5,8,33.5z"/></g><g><path class="st1" d="M44,18.95c-0.084,0-0.17-0.021-0.248-0.066c-0.239-0.137-0.323-0.442-0.187-0.682    c0.425-0.745,0.796-1.512,1.102-2.28c0.103-0.257,0.392-0.383,0.65-0.279c0.256,0.102,0.381,0.393,0.279,0.649    c-0.323,0.811-0.715,1.621-1.162,2.405C44.342,18.859,44.173,18.95,44,18.95z"/></g><g><path class="st1" d="M7.999,36.5c-0.241,0-0.454-0.176-0.493-0.422c-0.043-0.273,0.144-0.529,0.416-0.572    c7.214-1.139,16.653-1.98,28.056-2.499c0.32-0.018,0.51,0.202,0.521,0.477c0.013,0.276-0.2,0.51-0.477,0.522    c-11.365,0.518-20.767,1.354-27.944,2.487C8.052,36.498,8.025,36.5,7.999,36.5z"/></g><g><path class="st1" d="M40,33.842c-0.268,0-0.489-0.212-0.5-0.481c-0.01-0.276,0.205-0.508,0.481-0.518    C49.072,32.504,55.932,32.5,56,32.5c0.276,0,0.5,0.224,0.5,0.5s-0.224,0.5-0.5,0.5c-0.068,0-6.91,0.004-15.981,0.341    C40.013,33.842,40.006,33.842,40,33.842z"/></g><g><path class="st1" d="M7.999,39.5c-0.241,0-0.454-0.176-0.493-0.422c-0.043-0.273,0.144-0.529,0.416-0.572    c7.214-1.139,16.653-1.98,28.056-2.499c0.32-0.021,0.51,0.202,0.521,0.477c0.013,0.276-0.2,0.51-0.477,0.522    c-11.365,0.518-20.767,1.354-27.944,2.487C8.052,39.498,8.025,39.5,7.999,39.5z"/></g><g><path class="st1" d="M40,36.842c-0.268,0-0.489-0.212-0.5-0.481c-0.01-0.276,0.205-0.508,0.481-0.518    C49.072,35.504,55.932,35.5,56,35.5c0.276,0,0.5,0.224,0.5,0.5s-0.224,0.5-0.5,0.5c-0.068,0-6.91,0.004-15.981,0.341    C40.013,36.842,40.006,36.842,40,36.842z"/></g><g><path class="st1" d="M48,52.5c-0.276,0-0.5-0.224-0.5-0.5V38c0-0.276,0.224-0.5,0.5-0.5s0.5,0.224,0.5,0.5v14    C48.5,52.276,48.276,52.5,48,52.5z M46,52.5c-0.276,0-0.5-0.224-0.5-0.5V38c0-0.276,0.224-0.5,0.5-0.5s0.5,0.224,0.5,0.5v14    C46.5,52.276,46.276,52.5,46,52.5z M40,52.5c-0.276,0-0.5-0.224-0.5-0.5V31.406c0-1.051,0.855-1.906,1.906-1.906h3.188    c1.051,0,1.906,0.855,1.906,1.906v1.748c0,0.276-0.224,0.5-0.5,0.5s-0.5-0.224-0.5-0.5v-1.748c0-0.5-0.406-0.906-0.906-0.906    h-3.188c-0.5,0-0.906,0.407-0.906,0.906V52C40.5,52.276,40.276,52.5,40,52.5z M38,52.5c-0.276,0-0.5-0.224-0.5-0.5V17    c0-0.276,0.224-0.5,0.5-0.5s0.5,0.224,0.5,0.5v35C38.5,52.276,38.276,52.5,38,52.5z M48,33.607c-0.276,0-0.5-0.224-0.5-0.5V13.5    h-1.315c-0.392,0.31-1.456,1-3.185,1s-2.793-0.69-3.185-1H38c-0.276,0-0.5-0.224-0.5-0.5s0.224-0.5,0.5-0.5h2    c0.133,0,0.26,0.053,0.354,0.146C40.387,12.679,41.255,13.5,43,13.5s2.613-0.821,2.649-0.856C45.742,12.553,45.87,12.5,46,12.5h2    c0.276,0,0.5,0.224,0.5,0.5v20.107C48.5,33.383,48.276,33.607,48,33.607z M44.594,28.5h-3.188c-1.051,0-1.906-0.855-1.906-1.906    v-2.188c0-1.051,0.855-1.906,1.906-1.906h3.188c1.051,0,1.906,0.855,1.906,1.906v2.188C46.5,27.645,45.645,28.5,44.594,28.5z     M41.406,23.5c-0.5,0-0.906,0.407-0.906,0.906v2.188c0,0.5,0.406,0.906,0.906,0.906h3.188c0.5,0,0.906-0.407,0.906-0.906v-2.188    c0-0.5-0.406-0.906-0.906-0.906H41.406z M42,21.5h-0.594c-1.051,0-1.906-0.855-1.906-1.906V18c0-0.276,0.224-0.5,0.5-0.5    s0.5,0.224,0.5,0.5v1.594c0,0.5,0.406,0.906,0.906,0.906H42c0.276,0,0.5,0.224,0.5,0.5S42.276,21.5,42,21.5z M45.94,20.5    c-0.048,0-0.097-0.007-0.146-0.021c-0.265-0.081-0.413-0.36-0.333-0.624c0.025-0.083,0.038-0.17,0.038-0.261v-2.188    c0-0.5-0.406-0.906-0.906-0.906H42c-0.276,0-0.5-0.224-0.5-0.5s0.224-0.5,0.5-0.5h2.594c1.051,0,1.906,0.855,1.906,1.906v2.188    c0,0.189-0.027,0.375-0.081,0.552C46.354,20.361,46.155,20.5,45.94,20.5z"/></g><g><path class="st1" d="M41,54.5c-0.276,0-0.5-0.224-0.5-0.5v-1.5h-3V54c0,0.276-0.224,0.5-0.5,0.5s-0.5-0.224-0.5-0.5v-2    c0-0.276,0.224-0.5,0.5-0.5h4c0.276,0,0.5,0.224,0.5,0.5v2C41.5,54.276,41.276,54.5,41,54.5z"/></g><g><path class="st1" d="M49,54.5c-0.276,0-0.5-0.224-0.5-0.5v-1.5h-3V54c0,0.276-0.224,0.5-0.5,0.5s-0.5-0.224-0.5-0.5v-2    c0-0.276,0.224-0.5,0.5-0.5h4c0.276,0,0.5,0.224,0.5,0.5v2C49.5,54.276,49.276,54.5,49,54.5z"/></g><g><path class="st1" d="M8,31.5c-0.276,0-0.5-0.224-0.5-0.5s0.224-0.5,0.5-0.5c24.339,0,29.47-17.458,29.519-17.634    c0.055-0.197,0.223-0.34,0.426-0.363c0.202-0.025,0.399,0.08,0.496,0.259C38.509,12.89,45.431,25.5,56,25.5    c0.276,0,0.5,0.224,0.5,0.5s-0.224,0.5-0.5,0.5c-9.539,0-16.021-9.278-17.893-12.324C36.541,18.065,29.566,31.5,8,31.5z"/></g><g><path class="st1" d="M56,24.5c-8.402,0-8.5-11.385-8.5-11.5c0-0.276,0.224-0.5,0.5-0.5l0,0c0.276,0,0.5,0.224,0.5,0.5    c0,0.429,0.096,10.5,7.5,10.5c0.276,0,0.5,0.224,0.5,0.5S56.276,24.5,56,24.5z"/></g><g><path class="st1" d="M36,47.5H8c-0.276,0-0.5-0.224-0.5-0.5s0.224-0.5,0.5-0.5h28c0.276,0,0.5,0.224,0.5,0.5S36.276,47.5,36,47.5z    "/></g><g><path class="st1" d="M56,47.5h-6c-0.276,0-0.5-0.224-0.5-0.5s0.224-0.5,0.5-0.5h6c0.276,0,0.5,0.224,0.5,0.5S56.276,47.5,56,47.5z    "/></g><g><path class="st1" d="M34,50.5H24c-0.276,0-0.5-0.224-0.5-0.5s0.224-0.5,0.5-0.5h10c0.276,0,0.5,0.224,0.5,0.5S34.276,50.5,34,50.5    z"/></g><g><path class="st1" d="M20,52.5h-5c-0.276,0-0.5-0.224-0.5-0.5s0.224-0.5,0.5-0.5h5c0.276,0,0.5,0.224,0.5,0.5S20.276,52.5,20,52.5z    "/></g><g><path class="st1" d="M49,9.5h-4c-0.276,0-0.5-0.224-0.5-0.5s0.224-0.5,0.5-0.5h4c0.276,0,0.5,0.224,0.5,0.5S49.276,9.5,49,9.5z"/></g><g><path class="st1" d="M15,24.5h-4c-0.276,0-0.5-0.224-0.5-0.5s0.224-0.5,0.5-0.5h4c0.276,0,0.5,0.224,0.5,0.5S15.276,24.5,15,24.5z    "/></g><g><path class="st1" d="M46,42.5c-0.075,0-0.151-0.017-0.224-0.053l-6-3c-0.247-0.124-0.347-0.424-0.224-0.671    c0.125-0.247,0.424-0.345,0.671-0.224l6,3c0.247,0.124,0.347,0.424,0.224,0.671C46.359,42.399,46.183,42.5,46,42.5z"/></g><g><path class="st1" d="M40,42.5c-0.183,0-0.359-0.101-0.447-0.276c-0.123-0.247-0.023-0.547,0.224-0.671l6-3    c0.248-0.122,0.547-0.023,0.671,0.224c0.123,0.247,0.023,0.547-0.224,0.671l-6,3C40.151,42.483,40.075,42.5,40,42.5z"/></g><g><path class="st1" d="M46,45.5c-0.075,0-0.151-0.017-0.224-0.053l-6-3c-0.247-0.124-0.347-0.424-0.224-0.671    c0.125-0.247,0.424-0.345,0.671-0.224l6,3c0.247,0.124,0.347,0.424,0.224,0.671C46.359,45.399,46.183,45.5,46,45.5z"/></g><g><path class="st1" d="M40,45.5c-0.183,0-0.359-0.101-0.447-0.276c-0.123-0.247-0.023-0.547,0.224-0.671l6-3    c0.248-0.122,0.547-0.023,0.671,0.224c0.123,0.247,0.023,0.547-0.224,0.671l-6,3C40.151,45.483,40.075,45.5,40,45.5z"/></g><g><path class="st1" d="M46,48.5c-0.075,0-0.151-0.017-0.224-0.053l-6-3c-0.247-0.124-0.347-0.424-0.224-0.671    c0.125-0.247,0.424-0.345,0.671-0.224l6,3c0.247,0.124,0.347,0.424,0.224,0.671C46.359,48.399,46.183,48.5,46,48.5z"/></g><g><path class="st1" d="M40,48.5c-0.183,0-0.359-0.101-0.447-0.276c-0.123-0.247-0.023-0.547,0.224-0.671l6-3    c0.248-0.122,0.547-0.023,0.671,0.224c0.123,0.247,0.023,0.547-0.224,0.671l-6,3C40.151,48.483,40.075,48.5,40,48.5z"/></g><g><path class="st1" d="M46,48.5h-6c-0.276,0-0.5-0.224-0.5-0.5s0.224-0.5,0.5-0.5h6c0.276,0,0.5,0.224,0.5,0.5S46.276,48.5,46,48.5z    "/></g><g><path class="st1" d="M46,45.5h-6c-0.276,0-0.5-0.224-0.5-0.5s0.224-0.5,0.5-0.5h6c0.276,0,0.5,0.224,0.5,0.5S46.276,45.5,46,45.5z    "/></g><g><path class="st1" d="M46,42.5h-6c-0.276,0-0.5-0.224-0.5-0.5s0.224-0.5,0.5-0.5h6c0.276,0,0.5,0.224,0.5,0.5S46.276,42.5,46,42.5z    "/></g></g></svg>